<svg width="32" height="32" viewBox="0 0 32 32" fill="none" xmlns="http://www.w3.org/2000/svg">
<path d="M4 8C4 7.73478 4.10536 7.48043 4.29289 7.29289C4.48043 7.10536 4.73478 7 5 7H27C27.2652 7 27.5196 7.10536 27.7071 7.29289C27.8946 7.48043 28 7.73478 28 8C28 8.26522 27.8946 8.51957 27.7071 8.70711C27.5196 8.89464 27.2652 9 27 9H5C4.73478 9 4.48043 8.89464 4.29289 8.70711C4.10536 8.51957 4 8.26522 4 8ZM17 15H5C4.73478 15 4.48043 15.1054 4.29289 15.2929C4.10536 15.4804 4 15.7348 4 16C4 16.2652 4.10536 16.5196 4.29289 16.7071C4.48043 16.8946 4.73478 17 5 17H17C17.2652 17 17.5196 16.8946 17.7071 16.7071C17.8946 16.5196 18 16.2652 18 16C18 15.7348 17.8946 15.4804 17.7071 15.2929C17.5196 15.1054 17.2652 15 17 15ZM17 23H5C4.73478 23 4.48043 23.1054 4.29289 23.2929C4.10536 23.4804 4 23.7348 4 24C4 24.2652 4.10536 24.5196 4.29289 24.7071C4.48043 24.8946 4.73478 25 5 25H17C17.2652 25 17.5196 24.8946 17.7071 24.7071C17.8946 24.5196 18 24.2652 18 24C18 23.7348 17.8946 23.4804 17.7071 23.2929C17.5196 23.1054 17.2652 23 17 23Z" fill="#0A0A0A"/>
<path d="M27.469 25.8475L19.469 20.8475C19.3254 20.7576 19.207 20.6326 19.1249 20.4844C19.0429 20.3361 18.9998 20.1695 18.9998 20C18.9998 19.8306 19.0429 19.6639 19.1249 19.5156C19.207 19.3674 19.3254 19.2424 19.469 19.1525L27.469 14.1525C27.6204 14.0579 27.7943 14.0056 27.9727 14.0009C28.1511 13.9961 28.3275 14.0393 28.4836 14.1257C28.6397 14.2122 28.7698 14.3389 28.8605 14.4926C28.9511 14.6464 28.9989 14.8215 28.999 15L28.999 25C28.9989 25.1785 28.9511 25.3537 28.8605 25.5074C28.7698 25.6611 28.6397 25.7878 28.4836 25.8743C28.3275 25.9607 28.1511 26.0039 27.9727 25.9992C27.7942 25.9945 27.6204 25.9421 27.469 25.8475Z" fill="#0A0A0A"/>
</svg>
